<svg width="64" height="58" viewBox="0 0 64 58" fill="none" xmlns="http://www.w3.org/2000/svg">
<rect width="64" height="58" rx="4" fill="#DB2777"/>
<path d="M8.78 38V24.848L3.98 25.088V21.008H18.02V25.088L13.1 24.848V34.16L13.364 36.56L13.1 38H8.78ZM20.42 38V24.872L19.94 22.472L20.42 21.008H27.572C28.724 21.008 29.828 21.12 30.884 21.344C31.956 21.552 32.908 21.952 33.74 22.544C34.588 23.136 35.252 23.984 35.732 25.088C36.228 26.192 36.476 27.624 36.476 29.384C36.476 31.144 36.228 32.592 35.732 33.728C35.236 34.848 34.564 35.72 33.716 36.344C32.868 36.968 31.908 37.4 30.836 37.64C29.78 37.88 28.692 38 27.572 38H20.42ZM24.788 34.16H27.572C28.98 34.16 30.06 33.792 30.812 33.056C31.564 32.304 31.94 31.08 31.94 29.384C31.94 27.688 31.556 26.512 30.788 25.856C30.036 25.184 28.964 24.848 27.572 24.848H24.788V34.16ZM56.2775 38.72L53.6375 36.08L56.2775 33.44L58.9175 36.08L56.2775 38.72Z" fill="white"/>
<path d="M42.7175 38V24.848L37.9175 25.088V21.008H51.9575V25.088L47.0375 24.848V34.16L47.3015 36.56L47.0375 38H42.7175Z" fill="#181B23"/>
</svg>
